<svg xmlns="http://www.w3.org/2000/svg" xmlns:xlink="http://www.w3.org/1999/xlink" version="1.1" x="0px" y="0px" viewBox="0 0 413.324 519.7425" style="enable-background:new 0 0 413.324 415.794;" xml:space="preserve"><g><path d="M168.635,336.449c-5.809-1.011-9.351,1.272-10.725,2.646c-1.75,1.75-3,4-1.5,10.5s9,7,19,6   c6.185-0.619,7.584-5.637,5.625-10.322c-0.694-0.042-1.389-0.117-2.072-0.258C174.146,344.009,170.397,340.683,168.635,336.449z"/><path d="M260.26,281.483c-5.112,0.874-9.162,3.274-9.85,6.612c-1.166,5.667,8.168,3.001,14.834,8.333   c6.668,5.333,18.5,0.667,18.5-2.333c0-1.892-1.065-5.109-4.191-7.897c-2.11,1.201-4.545,1.896-7.143,1.896   C267.323,288.094,262.849,285.456,260.26,281.483z"/><path d="M64.41,332.095c-1.166,5.667,8.168,3.001,14.834,8.333c6.668,5.333,18.5,0.667,18.5-2.333s-2.666-9.333-12-12   C76.412,323.429,65.578,326.429,64.41,332.095z"/><path d="M260.143,369.037c-8.342,1.811-12.182,13.938-9.854,15.831c2.328,1.891,8.926,3.814,16.881-1.747   c7.953-5.563,12.457-15.863,8.795-20.342C272.303,358.3,268.486,367.226,260.143,369.037z"/><path d="M288.408,87.593c1.201,0,2.383,0.216,3.514,0.639c3.582,1.343,5.939,4.538,6.4,8.093c1.304-0.837,10.253-6.727,9.172-9.896   c-1.168-3.417-7.334-2.667-14-7.334c-6.668-4.666-15.084-1.75-16,3.334c-0.685,3.791-0.346,6.748,2.082,10.495   C281.291,89.691,284.694,87.593,288.408,87.593z"/><path d="M142.18,142.533c0,0-4.889,11.388-1.986,13.534c0.565,0.418,1.2,0.593,1.911,0.612c0.093-1.597,0.201-3.224,0.341-4.912   c0.424-5.142,4.799-9.172,9.957-9.172c0.277,0,0.553,0.011,0.832,0.034c2.662,0.22,5.08,1.465,6.805,3.502   c1.51,1.782,2.334,3.982,2.369,6.284c4.133-2.409,6.217-6.864,4.732-10.127c-2.137-4.702-4.93-7.127-12.73-9.026   C146.609,131.362,142.18,142.533,142.18,142.533z"/><path d="M224.185,259.499c-1.237,18.168-9.154,94.987-53.376,153.895l3.201,2.4c51.448-68.677,54.362-159.957,54.398-160.135   l-3.997-0.129v-0.002C224.409,255.532,224.367,256.905,224.185,259.499z"/><path d="M275.556,40.055c0-12.772-0.637-26.148-2.081-40.055l-3.979,0.413c1.43,13.764,2.058,27.002,2.058,39.642   c0.001,30.24-3.604,57.049-8.461,79.455c1.866-2.064,3.693-4.241,5.433-6.553C272.646,91.884,275.554,67.356,275.556,40.055z"/><path d="M253.817,153.911c-3.986,12.241-7.915,21.887-10.899,28.566c-1.587,3.553-2.907,6.266-3.827,8.085   c-0.142,0.281-0.27,0.532-0.392,0.769l2.321,3.836l0.134,0.075c0.051-0.098,9.248-16.507,18.118-45.306   c-0.241,0.184-0.473,0.372-0.716,0.556C256.945,151.701,255.361,152.839,253.817,153.911z"/><ellipse transform="matrix(0.9899 -0.1419 0.1419 0.9899 -15.6031 30.9544)" cx="209.282" cy="124.902" rx="22.5" ry="22.5"/><path d="M190.807,227.598l-21.014,100.833c-1.395,6.686,2.896,13.232,9.58,14.625c6.684,1.393,13.234-2.894,14.627-9.581   l19.902-95.493c3.121,5.845,10.307,8.276,16.359,5.411v-0.003l29.648-14.045v44.251c0,6.902,5.596,12.499,12.5,12.499   c6.904,0,12.5-5.597,12.5-12.499v-64.001c0-4.304-2.18-8.263-5.816-10.564c-3.635-2.301-8.146-2.576-12.035-0.733l-26.682,12.638   c-0.922-2.804-1.694-5.58-2.36-8.316c-18.883,9.408-40.104,11.411-50.62,11.856C188.352,218.781,189.474,223.179,190.807,227.598z"/><path d="M153.07,144.623c-4.402-0.365-8.268,2.909-8.633,7.311c-0.416,5.012-0.611,9.463-0.613,13.43   c0.041,9.079,0.914,15.609,3.32,20.996c1.221,2.67,2.963,5.14,5.451,6.954c2.42,1.799,5.477,2.69,8.192,2.69   c0.051,0,0.101,0,0.152,0c5.816-0.137,9.938-2.738,13.75-5.487c2.932-2.211,5.666-4.787,8.154-7.404   c0.463,6.21,1.264,13.547,2.613,21.453c9.507-0.293,32.58-2.249,50.547-12.148c-1.871-12.322-1.568-22.978-1.02-29.529   c4.66-2.359,13.039-6.99,22.369-13.995c13.941-10.505,30.213-26.379,38.547-48.489c1.551-4.137-0.545-8.749-4.682-10.3   c-4.137-1.551-8.748,0.545-10.299,4.682c-6.664,17.889-20.633,31.918-33.18,41.316c-6.252,4.699-12.096,8.239-16.332,10.575   c-2.115,1.168-3.83,2.036-4.992,2.602c-0.25,0.121-0.467,0.225-0.662,0.318l-36.926,5.292c-0.445,0.064-0.871,0.172-1.285,0.306   c-2.127,0.324-4.119,1.491-5.422,3.414c0,0-0.039,0.055-0.148,0.213c-0.816,1.188-5.019,7.127-9.963,12.457   c-2.457,2.662-5.117,5.161-7.361,6.761c-1.115,0.802-2.117,1.37-2.814,1.666c-0.039,0.017-0.076,0.033-0.113,0.048   c-0.273-0.583-0.629-1.531-0.926-2.904c-0.566-2.512-0.975-6.337-0.971-11.486c0-3.437,0.174-7.461,0.559-12.109   C160.748,148.854,157.473,144.988,153.07,144.623z"/><path d="M116.375,263.595c-0.748,5.667,5.236,3.001,9.51,8.333c4.273,5.333,11.859,0.667,11.859-2.333s-1.709-9.333-7.693-12   C124.068,254.929,117.123,257.929,116.375,263.595z"/><path d="M324.904,168.745c-4.764-3.16-4.996,3.387-11.664,4.885c-6.668,1.499-5.807,10.363-3.111,11.681   c2.695,1.317,9.137,2.562,14.16-1.643C329.313,179.463,329.666,171.906,324.904,168.745z"/><path d="M321.275,40.219c3.34-1.854,9.563-7.263,9.631-14.144c0.066-6.878-6.645-11.098-13.318-8.25   c-6.674,2.848-0.801,6.433-4.668,13.465C309.055,38.323,317.934,42.073,321.275,40.219z"/><path d="M72.732,166.008c-2.793,1.093-8.07,4.993-8.373,11.537c-0.305,6.543,5.02,11.918,10.57,10.551   c5.551-1.368,0.887-5.97,4.297-11.893C82.635,170.28,75.525,164.915,72.732,166.008z"/><path d="M370.732,229.008c-2.793,1.093-8.07,4.993-8.373,11.537c-0.305,6.542,5.02,11.917,10.57,10.551   c5.551-1.368,0.887-5.97,4.297-11.893C380.635,233.28,373.525,227.915,370.732,229.008z"/><path d="M319.275,247.72c-1.742,5.375,3.486,9.004,11.186,12.635c7.697,3.63,11.328-6.537,6.533-13.363   c-4.793-6.826-10.022-6.752-12.055-6.244C322.906,241.257,321.018,242.346,319.275,247.72z"/><path d="M239.477,39.73c6.879-5.004-0.02-12.488-8.199-11.34c-8.182,1.147-10.686,5.641-11.25,7.595   c-0.564,1.955-0.561,4.036,3.172,7.841C226.932,47.631,232.6,44.734,239.477,39.73z"/><path d="M127.494,66.111c10-1,7.5-13.5-1.5-17.5s-14.25-0.75-16,1s-3,4-1.5,10.5S117.494,67.111,127.494,66.111z"/><path d="M187.979,80.827c7.117,3.579,10.754-5.848,6.43-12.348c-4.324-6.5-9.219-6.555-11.133-6.127   c-1.914,0.428-3.707,1.402-5.463,6.39C176.055,73.729,180.861,77.249,187.979,80.827z"/><rect y="296.693" width="152.992" height="4.5"/><rect x="52.41" y="105.693" width="106.582" height="4.5"/><rect x="306.744" y="133.693" width="106.58" height="4.5"/><rect x="304.484" y="289.693" width="91.496" height="4.5"/><rect x="239.484" y="336.693" width="91.496" height="4.5"/></g><text x="0" y="430.794" fill="#000000" font-size="5px" font-weight="bold" font-family="'Helvetica Neue', Helvetica, Arial-Unicode, Arial, Sans-serif">Created by Gan Khoon Lay</text><text x="0" y="435.794" fill="#000000" font-size="5px" font-weight="bold" font-family="'Helvetica Neue', Helvetica, Arial-Unicode, Arial, Sans-serif">from the Noun Project</text></svg>